<?xml version="1.0"?>
<svg xmlns="http://www.w3.org/2000/svg" xmlns:xlink="http://www.w3.org/1999/xlink" xmlns:svgjs="http://svgjs.com/svgjs" version="1.1" width="512" height="512" x="0" y="0" viewBox="0 0 512 512" style="enable-background:new 0 0 512 512" xml:space="preserve" class=""><g><g xmlns="http://www.w3.org/2000/svg"><path d="m409.959 397.949-64.267-32.133c-5.082-2.54-8.292-7.734-8.292-13.416v-96.4c0-5.682 3.21-10.875 8.292-13.416l64.267-32.134c4.648-2.326 10.172-2.077 14.594.656 4.423 2.733 7.114 7.562 7.114 12.76v160.667c0 5.198-2.691 10.026-7.114 12.76-4.42 2.732-9.941 2.983-14.594.656z" fill="#e1e6e9" data-original="#00283c" style="" class=""/><ellipse cx="280.1" cy="152.633" fill="#e1e6e9" rx="56.233" ry="56.233" transform="matrix(.707 -.707 .707 .707 -25.889 242.766)" data-original="#004b69" style="" class=""/><path d="m336.333 152.634c0-31.007-25.226-56.233-56.232-56.233-8.621 0-16.791 1.955-24.1 5.437v101.592c7.309 3.482 15.479 5.437 24.1 5.437 31.005-.001 56.232-25.227 56.232-56.233z" fill="#e1e6e9" data-original="#00283c" style="" class=""/><path d="m320.267 399.533h-192.8c-25.808 0-47.134-20.855-47.134-47.133v-96.4c0-25.742 20.798-47.134 47.134-47.134h192.8c25.742 0 47.134 20.798 47.134 47.134v96.4c-.001 25.809-20.856 47.133-47.134 47.133z" fill="#e1e6e9" data-original="#006e96" style="" class=""/><ellipse cx="167.634" cy="152.633" fill="#e1e6e9" rx="56.233" ry="56.233" transform="matrix(.707 -.707 .707 .707 -58.829 163.24)" data-original="#004b69" style="" class=""/><path d="m367.4 352.4v-96.4c0-26.336-21.392-47.134-47.134-47.134h-64.266v190.667h64.267c26.278 0 47.133-21.324 47.133-47.133z" fill="#e1e6e9" data-original="#004b69" style="" class=""/><path d="m384.533 0h-257.066c-70.285 0-127.467 57.182-127.467 127.467v257.066c0 70.285 57.182 127.467 127.467 127.467h257.066c70.285 0 127.467-57.182 127.467-127.467v-257.066c0-70.285-57.182-127.467-127.467-127.467zm0 482h-257.066c-53.743 0-97.467-43.724-97.467-97.467v-257.066c0-21.471 6.984-41.338 18.792-57.462l393.203 393.203c-16.123 11.808-35.991 18.792-57.462 18.792zm97.467-97.467c0 21.471-6.984 41.338-18.792 57.462l-393.203-393.203c16.123-11.808 35.991-18.792 57.462-18.792h257.066c53.743 0 97.467 43.724 97.467 97.467z" fill="#ffb546" data-original="#ff553c" style="" class=""/><path d="m512 384.533v-257.066c0-70.285-57.182-127.467-127.467-127.467h-128.533v30h128.533c53.743 0 97.467 43.724 97.467 97.467v257.066c0 21.471-6.984 41.338-18.792 57.462l-207.208-207.208v42.426l185.995 185.995c-16.123 11.808-35.991 18.792-57.462 18.792h-128.533v30h128.533c70.285 0 127.467-57.182 127.467-127.467z" fill="#ff9900" data-original="#fa0032" style="" class=""/><circle clip-rule="evenodd" cx="129.6" cy="350.267" fill="#434645" fill-rule="evenodd" r="15" data-original="#dcff2e" style="" class=""/></g></g></svg>
